<svg width="17" height="19" viewBox="0 0 17 19" fill="none" xmlns="http://www.w3.org/2000/svg">
<path d="M7.41945 10.6038L15.983 10.6038C16.4476 10.6038 16.8242 10.2272 16.8242 9.76262C16.8242 9.29803 16.4476 8.9214 15.983 8.9214L8.11671 8.9214C7.69776 8.9214 7.33821 8.6472 7.09162 8.30851C6.9275 8.08309 6.72621 7.88512 6.49484 7.7238C6.07141 7.42856 5.56763 7.27026 5.05143 7.27026C4.53523 7.27026 4.03145 7.42856 3.60802 7.7238C3.37666 7.88512 3.17537 8.08309 3.01124 8.30851C2.76465 8.6472 2.4051 8.9214 1.98615 8.9214L0.841156 8.9214C0.376566 8.9214 -5.73091e-05 9.29803 -5.73294e-05 9.76261C-5.73497e-05 10.2272 0.376566 10.6038 0.841156 10.6038L1.97774 10.6038C2.39669 10.6038 2.75624 10.878 3.00283 11.2167C3.16695 11.4421 3.36824 11.6401 3.59961 11.8014C4.02304 12.0967 4.52682 12.255 5.04302 12.255C5.55922 12.255 6.063 12.0967 6.48643 11.8014C6.90756 11.5078 7.22906 11.0927 7.40811 10.6117C7.40988 10.607 7.41439 10.6038 7.41945 10.6038Z" fill="black"/>
<path d="M12.4667 17.3336L15.983 17.3336C16.4476 17.3336 16.8242 16.9569 16.8242 16.4924C16.8242 16.0278 16.4476 15.6511 15.983 15.6511L13.164 15.6511C12.745 15.6511 12.3855 15.3769 12.1389 15.0382C11.9748 14.8128 11.7735 14.6149 11.5421 14.4535C11.1187 14.1583 10.6149 14 10.0987 14C9.58252 14 9.07873 14.1583 8.6553 14.4535C8.42394 14.6149 8.22265 14.8128 8.05853 15.0382C7.81194 15.3769 7.45238 15.6511 7.03343 15.6511L0.841156 15.6511C0.376566 15.6511 -5.73091e-05 16.0278 -5.73294e-05 16.4924C-5.73497e-05 16.9569 0.376566 17.3336 0.841156 17.3336L7.02502 17.3336C7.44397 17.3336 7.80352 17.6078 8.05011 17.9465C8.21424 18.1719 8.41553 18.3698 8.64689 18.5312C9.07032 18.8264 9.5741 18.9847 10.0903 18.9847C10.6065 18.9847 11.1103 18.8264 11.5337 18.5312C11.9548 18.2375 12.2763 17.8225 12.4554 17.3415C12.4572 17.3367 12.4617 17.3336 12.4667 17.3336Z" fill="black"/>
<path d="M12.4667 3.33357L15.983 3.33357C16.4476 3.33357 16.8242 2.95694 16.8242 2.49235C16.8242 2.02776 16.4476 1.65114 15.983 1.65114L13.164 1.65114C12.745 1.65114 12.3855 1.37694 12.1389 1.03825C11.9748 0.812827 11.7735 0.61486 11.5421 0.453539C11.1187 0.158296 10.6149 -2.71417e-07 10.0987 -2.93981e-07C9.58252 -3.16545e-07 9.07873 0.158295 8.6553 0.453539C8.42394 0.61486 8.22265 0.812827 8.05853 1.03824C7.81194 1.37694 7.45238 1.65114 7.03343 1.65114L0.841156 1.65114C0.376566 1.65114 -5.73091e-05 2.02776 -5.73294e-05 2.49235C-5.73497e-05 2.95694 0.376566 3.33357 0.841156 3.33357L7.02502 3.33357C7.44397 3.33357 7.80352 3.60777 8.05011 3.94646C8.21424 4.17188 8.41553 4.36984 8.64689 4.53116C9.07032 4.82641 9.5741 4.9847 10.0903 4.9847C10.6065 4.9847 11.1103 4.82641 11.5337 4.53116C11.9548 4.23753 12.2763 3.82247 12.4554 3.34146C12.4572 3.33672 12.4617 3.33357 12.4667 3.33357Z" fill="black"/>
</svg>
