<svg width="181" height="44" viewBox="0 0 181 44" fill="none" xmlns="http://www.w3.org/2000/svg">
<path fill-rule="evenodd" clip-rule="evenodd" d="M0.659244 0H5.33941C5.70252 0 5.99866 0.296136 5.99866 0.659244V5.87947C5.99866 6.24279 6.29458 6.53872 6.6579 6.53872H6.83164C7.10253 6.53872 7.33362 6.38551 7.43911 6.13602L9.85954 0.402691C9.96502 0.153416 10.1961 0 10.4668 0H17.2355C17.5986 0 17.8948 0.296136 17.8948 0.659244V10.0801C17.8948 10.4432 17.5986 10.7394 17.2355 10.7394H6.60933C6.24622 10.7394 5.95009 11.0355 5.95009 11.3986V13.1335C5.95009 13.4966 6.24622 13.7927 6.60933 13.7927H17.2355C17.5986 13.7927 17.8948 14.0889 17.8948 14.452V33.1611C17.8948 33.5242 17.5986 33.8204 17.2355 33.8204H10.4668C10.1961 33.8204 9.96502 33.6669 9.85954 33.4177L7.43911 27.6843C7.33362 27.435 7.10253 27.2816 6.83164 27.2816H6.6579C6.29458 27.2816 5.99866 27.5778 5.99866 27.9409V33.1611C5.99866 33.5242 5.70252 33.8204 5.33941 33.8204H0.659244C0.296136 33.8204 0 33.5242 0 33.1611V0.659244C0 0.296136 0.296136 0 0.659244 0Z" fill="#DB0000"/>
<path fill-rule="evenodd" clip-rule="evenodd" d="M31.2147 33.8204H19.9293C19.5662 33.8204 19.2703 33.5242 19.2703 33.1611V28.5295C19.2703 28.1664 19.5662 27.8703 19.9293 27.8703H30.5555C30.9186 27.8703 31.2147 27.5741 31.2147 27.211V25.1811C31.2147 24.818 30.9186 24.5218 30.5555 24.5218H19.9601C19.597 24.5218 19.3009 24.2259 19.3009 23.8626V0.659244C19.3009 0.296136 19.597 0 19.9601 0H28.756C29.1191 0 29.4152 0.296136 29.4152 0.659244V19.341C29.4152 19.7041 29.7114 20.0002 30.0745 20.0002H30.5555C30.9186 20.0002 31.2147 19.7041 31.2147 19.341V0.659244C31.2147 0.296136 31.5109 0 31.874 0H36.5056C36.8687 0 37.1648 0.296136 37.1648 0.659244V33.1611C37.1648 33.5242 36.8687 33.8204 36.5056 33.8204H31.2147Z" fill="#DB0000"/>
<path fill-rule="evenodd" clip-rule="evenodd" d="M49.6495 4.31428L38.7274 19.4548C38.6429 19.5721 38.6026 19.696 38.6026 19.8404L38.6024 33.1611C38.6024 33.5242 38.8986 33.8204 39.2617 33.8204H46.0788C46.3496 33.8204 46.5807 33.6669 46.686 33.4177L49.1066 27.6843C49.2121 27.435 49.4432 27.2816 49.7139 27.2816H49.8879C50.251 27.2816 50.5471 27.5778 50.5471 27.9409V33.1611C50.5471 33.5242 50.8432 33.8204 51.2063 33.8204H55.8379C56.201 33.8204 56.4972 33.5242 56.4972 33.1611V0.659244C56.4972 0.296136 56.201 0 55.8379 0H50.5471H39.2617C38.8986 0 38.6024 0.296136 38.6024 0.659244V2.61001C38.6024 2.97333 38.8986 3.26925 39.2617 3.26925H49.1148C49.3688 3.26925 49.5862 3.40234 49.7017 3.62829C49.8172 3.85424 49.798 4.10844 49.6495 4.31428Z" fill="#DB0000"/>
<path fill-rule="evenodd" clip-rule="evenodd" d="M58.5938 5.29779H63.2254C63.5887 5.29779 63.8847 5.59393 63.8847 5.95703V13.161C63.8847 13.5241 64.1808 13.8202 64.5439 13.8202H69.1755C69.5388 13.8202 69.8347 14.1164 69.8347 14.4795V33.1612C69.8347 33.5243 69.5388 33.8205 69.1755 33.8205H63.8847H58.5938C58.2307 33.8205 57.9346 33.5243 57.9346 33.1612V5.95703C57.9346 5.59393 58.2307 5.29779 58.5938 5.29779ZM63.7028 18.8761H64.1838C64.5469 18.8761 64.843 19.1721 64.843 19.5352V27.2111C64.843 27.5742 64.5469 27.8704 64.1838 27.8704H63.7028C63.3397 27.8704 63.0435 27.5742 63.0435 27.2111V19.5352C63.0435 19.1721 63.3397 18.8761 63.7028 18.8761Z" fill="#DB0000"/>
<path fill-rule="evenodd" clip-rule="evenodd" d="M58.0179 2.61001V0.659244C58.0179 0.296136 58.3139 0 58.677 0H96.1444C96.5078 0 96.8037 0.296136 96.8037 0.659244V2.61001C96.8037 2.97333 96.5078 3.26925 96.1444 3.26925H77.9976C77.6343 3.26925 77.3384 3.56539 77.3384 3.92849V33.1611C77.3384 33.5242 77.0423 33.8204 76.6791 33.8204H72.0473C71.6842 33.8204 71.3883 33.5242 71.3883 33.1611V3.92849C71.3883 3.56539 71.0922 3.26925 70.7291 3.26925H58.677C58.3139 3.26925 58.0179 2.97333 58.0179 2.61001Z" fill="#DB0000"/>
<path fill-rule="evenodd" clip-rule="evenodd" d="M79.5993 5.48352H88.3954C88.7585 5.48352 89.0544 5.77966 89.0544 6.14276V19.2748C89.0544 19.6381 89.3505 19.934 89.7136 19.934H90.1947C90.558 19.934 90.8539 19.6381 90.8539 19.2748V6.14276C90.8539 5.77966 91.15 5.48352 91.5131 5.48352H96.1447C96.508 5.48352 96.804 5.77966 96.804 6.14276V33.1612C96.804 33.5243 96.508 33.8205 96.1447 33.8205H90.8539H79.5687C79.2056 33.8205 78.9094 33.5243 78.9094 33.1612V28.5296C78.9094 28.1665 79.2056 27.8704 79.5687 27.8704H90.1947C90.558 27.8704 90.8539 27.5742 90.8539 27.2111V25.1812C90.8539 24.8181 90.558 24.522 90.1947 24.522H79.5993C79.2362 24.522 78.94 24.226 78.94 23.8627V6.14276C78.94 5.77966 79.2362 5.48352 79.5993 5.48352Z" fill="#DB0000"/>
<path fill-rule="evenodd" clip-rule="evenodd" d="M99.1065 0H104.397H115.683C116.046 0 116.342 0.296136 116.342 0.659244V1.87566V5.95008V23.5951C116.342 23.9585 116.046 24.2544 115.683 24.2544H106.7C106.337 24.2544 106.041 23.9585 106.041 23.5951V9.85996C106.041 9.49685 106.337 9.20093 106.7 9.20093H109.71C110.074 9.20093 110.37 8.9048 110.37 8.54169V6.60933C110.37 6.24622 110.074 5.95008 109.71 5.95008H106.041H105.057C104.693 5.95008 104.397 6.24622 104.397 6.60933V33.1611C104.397 33.5242 104.101 33.8204 103.738 33.8204H99.1065C98.7434 33.8204 98.4473 33.5242 98.4473 33.1611V0.659244C98.4473 0.296136 98.7434 0 99.1065 0Z" fill="#DB0000"/>
<path fill-rule="evenodd" clip-rule="evenodd" d="M117.985 2.61001V0.659244C117.985 0.296136 118.281 0 118.644 0H129.93H135.221C135.584 0 135.88 0.296136 135.88 0.659244V3.26925V10.0001V20.0002V33.1611C135.88 33.5242 135.584 33.8204 135.221 33.8204H130.589C130.226 33.8204 129.93 33.5242 129.93 33.1611V14.4794C129.93 14.1163 129.634 13.8201 129.271 13.8201H128.286H124.617C124.254 13.8201 123.958 14.1163 123.958 14.4794V16.6805C123.958 17.0436 124.254 17.3397 124.617 17.3397H127.627C127.99 17.3397 128.286 17.6356 128.286 17.999V33.098C128.286 33.4611 127.99 33.7572 127.627 33.7572H118.644C118.281 33.7572 117.985 33.4611 117.985 33.098V23.7841V19.7097V11.3015V10.0001V8.84617C117.985 8.56116 118.157 8.31874 118.426 8.22416L129.919 4.18719L129.922 3.93684C129.924 3.75368 129.86 3.59556 129.732 3.46525C129.603 3.33516 129.445 3.26925 129.263 3.26925H118.644C118.281 3.26925 117.985 2.97333 117.985 2.61001Z" fill="#DB0000"/>
<path d="M116.443 34.8319C116.025 34.8925 115.637 34.6032 115.577 34.186C115.517 33.7687 115.806 33.381 116.224 33.3205L116.443 34.8319ZM110.923 31.5193L109.979 30.3189L110.781 29.7225L111.557 29.2122L112.309 28.7839L113.034 28.4344L113.733 28.1601L114.406 27.9584L115.052 27.8257L115.668 27.7596L116.256 27.7574L116.811 27.8165L117.332 27.9338L117.816 28.1058L118.259 28.3287L118.657 28.5975L119.009 28.9071L119.311 29.2525L119.562 29.6273L119.759 30.0262L119.901 30.4434L119.988 30.8741L120.016 31.3121L119.985 31.7516L119.894 32.1868L119.741 32.6111L119.527 33.0173L119.252 33.3979L118.918 33.7467L118.527 34.0574L118.081 34.3248L117.584 34.545L117.037 34.7151L116.443 34.8319L116.224 33.3205L116.666 33.2336L117.05 33.114L117.38 32.9678L117.659 32.8005L117.89 32.6165L118.079 32.4192L118.229 32.2114L118.343 31.9949L118.423 31.7713L118.471 31.5419L118.487 31.3087L118.472 31.0744L118.426 30.8418L118.348 30.6133L118.239 30.3925L118.099 30.1828L117.927 29.9868L117.724 29.8073L117.487 29.6477L117.216 29.5111L116.909 29.4016L116.564 29.3241L116.18 29.2831L115.755 29.2848L115.289 29.3346L114.782 29.4386L114.234 29.6031L113.647 29.8334L113.021 30.1349L112.357 30.5132L111.658 30.973L110.923 31.5193ZM110.923 31.5193C110.592 31.7801 110.111 31.723 109.85 31.3915C109.59 31.0601 109.647 30.5797 109.979 30.3189L110.923 31.5193ZM121.398 33.9027L122.587 34.8621L121.291 36.4051L120.044 37.7695L118.848 38.9624L117.7 39.9918L116.601 40.8646L115.55 41.5885L114.545 42.1698L113.586 42.6147L112.67 42.9284L111.798 43.1145L110.969 43.1759L110.188 43.1143L109.463 42.9335L108.801 42.6404L108.214 42.2458L107.706 41.7635L107.281 41.2087L106.938 40.5942L106.673 39.9306L106.486 39.2273L106.373 38.4921L106.334 37.7321L106.367 36.9539L106.472 36.1648L106.65 35.3711L106.901 34.5803L107.225 33.7995L107.623 33.0363L108.098 32.2983L108.648 31.5939L109.275 30.931L109.979 30.3189L110.923 31.5193L110.332 32.0334L109.806 32.5897L109.344 33.182L108.945 33.8032L108.609 34.4462L108.336 35.1041L108.125 35.7687L107.977 36.4327L107.889 37.0874L107.862 37.7252L107.894 38.3372L107.982 38.9154L108.125 39.4518L108.319 39.939L108.559 40.3708L108.844 40.7433L109.171 41.054L109.54 41.3026L109.957 41.4879L110.431 41.6058L110.969 41.6482L111.577 41.603L112.258 41.4575L113.012 41.1991L113.837 40.8163L114.731 40.2995L115.69 39.639L116.712 38.8266L117.796 37.8545L118.939 36.7151L120.141 35.4002L121.398 33.9027ZM121.398 33.9027C121.663 33.5744 122.145 33.5231 122.473 33.788C122.801 34.0529 122.852 34.5339 122.587 34.8621L121.398 33.9027ZM121.096 38.7932L122.254 39.7894V39.7896L121.751 40.3582L121.339 40.7917L120.997 41.1092L120.664 41.3441L120.018 41.4571L119.364 40.7679L119.381 40.3194L119.479 39.9743L119.62 39.6043L119.802 39.1882L120.019 38.726L120.266 38.2238L120.537 37.6891L120.824 37.1313L121.123 36.5593L121.426 35.9829L121.726 35.412L122.015 34.8565L122.288 34.327L122.537 33.8336L122.755 33.3879L122.933 33.0025L123.063 32.6942L123.134 32.4928L123.142 32.4935L123.464 33.0697L124.119 33.1232L124.101 33.1437L123.893 33.3419L123.566 33.6947L123.132 34.1997L122.587 34.8621L121.398 33.9027L121.961 33.2184L122.424 32.6809L122.799 32.2759L123.11 31.981L123.442 31.7542L124.292 31.785L124.669 32.5444L124.603 32.9143L124.487 33.2479L124.33 33.6209L124.135 34.0435L123.906 34.5123L123.65 35.0202L123.372 35.5588L123.08 36.1194L122.779 36.692L122.477 37.2667L122.181 37.8339L121.898 38.3836L121.633 38.9051L121.396 39.3876L121.194 39.8189L121.034 40.1855L120.925 40.4677L120.878 40.6241L120.87 40.5073L120.323 39.9597L119.931 40.0042L120.012 39.9418L120.259 39.712L120.622 39.3294L121.096 38.793V38.7932ZM121.096 38.793C121.372 38.4735 121.855 38.4373 122.174 38.7125C122.493 38.9877 122.529 39.4702 122.254 39.7896L121.096 38.793ZM126.244 38.5373L127.377 39.5613L126.922 40.0455L126.545 40.4054L126.205 40.6671L125.751 40.8539L124.936 40.5578L124.729 39.9634L124.768 39.5872L124.858 39.2346L124.984 38.8533L125.139 38.4361L125.316 37.9882L125.508 37.5164L125.709 37.0311L125.909 36.5428L126.102 36.0625L126.28 35.6022L126.434 35.1752L126.555 34.7966L126.636 34.4872L126.671 34.2788L126.677 34.2403L126.801 34.4712L127.188 34.6573L127.304 34.6473L127.146 34.7337L126.826 34.9674L126.378 35.3523L125.81 35.8935L125.119 36.5985L124.3 37.4762L123.347 38.5364L122.254 39.7894L121.096 38.7932L122.202 37.5252L123.172 36.4461L124.013 35.5445L124.735 34.8078L125.35 34.223L125.87 33.776L126.319 33.4495L126.746 33.2252L127.279 33.1326L127.93 33.4416L128.182 33.9793L128.194 34.4089L128.13 34.8086L128.022 35.2246L127.88 35.6673L127.712 36.135L127.525 36.6214L127.325 37.1171L127.122 37.6123L126.922 38.0958L126.734 38.557L126.565 38.983L126.425 39.3596L126.323 39.6694L126.267 39.8829L126.257 39.9266L126.114 39.5838L125.494 39.3484L125.377 39.3833L125.536 39.2581L125.833 38.9748L126.244 38.5373ZM126.244 38.5373C126.527 38.2244 127.01 38.2001 127.323 38.4827C127.636 38.7654 127.66 39.2485 127.377 39.5613L126.244 38.5373ZM134.342 39.2059L135.001 40.5835L133.938 41.0512L133.018 41.3681L132.217 41.5418L131.503 41.5686L130.851 41.419L130.3 41.0536L129.946 40.5257L129.794 39.9499L129.777 39.3694L129.849 38.7814L129.986 38.1812L130.172 37.5699L130.393 36.9535L130.638 36.34L130.896 35.7402L131.155 35.1651L131.402 34.627L131.626 34.1393L131.813 33.718L131.949 33.3834L132.019 33.1752L132.026 33.2321L132.507 33.8079L132.928 33.7948L132.815 33.8727L132.506 34.1342L132.046 34.5679L131.439 35.1771L130.679 35.9703L129.756 36.9577L128.659 38.1508L127.377 39.5613L126.244 38.5373L127.531 37.1212L128.635 35.92L129.569 34.9214L130.345 34.1115L130.978 33.4762L131.483 32.9997L131.888 32.6595L132.262 32.4207L132.966 32.3507L133.549 33.1046L133.501 33.55L133.381 33.9161L133.218 34.3171L133.018 34.7675L132.791 35.2633L132.546 35.7959L132.295 36.3539L132.05 36.9246L131.822 37.4948L131.622 38.0505L131.462 38.5749L131.353 39.0493L131.303 39.4503L131.309 39.7479L131.348 39.9159L131.379 39.9713L131.43 40.0051L131.619 40.0455L132.008 40.0286L132.596 39.9003L133.375 39.6313L134.342 39.2059ZM134.342 39.2059C134.723 39.0238 135.18 39.1845 135.361 39.5647C135.543 39.945 135.382 40.4014 135.001 40.5835L134.342 39.2059ZM137.99 39.6826L136.489 39.4006L136.73 38.2199L136.982 37.1595L137.243 36.2144L137.511 35.3791L137.782 34.6481L138.057 34.0161L138.332 33.4767L138.609 33.0226L138.891 32.6469L139.188 32.342L139.52 32.1045L139.925 31.9532L140.412 31.9628L140.857 32.1933L141.134 32.5429L141.271 32.9131L141.322 33.2888L141.313 33.6791L141.252 34.0908L141.14 34.527L140.976 34.9864L140.759 35.4676L140.484 35.9675L140.15 36.4817L139.754 37.0065L139.293 37.537L138.764 38.0689L138.164 38.5972L137.49 39.1178L136.74 39.6255L135.912 40.1157L135.001 40.5835L134.342 39.2059L135.174 38.778L135.924 38.3344L136.596 37.8797L137.192 37.4186L137.718 36.9558L138.175 36.4958L138.568 36.0437L138.9 35.6044L139.174 35.1826L139.393 34.7838L139.56 34.4134L139.679 34.0777L139.755 33.7843L139.791 33.5417L139.796 33.3628L139.783 33.2631L139.785 33.2614L139.861 33.3521L140.047 33.4465L140.22 33.4518L140.265 33.4375L140.198 33.488L140.059 33.6311L139.877 33.8734L139.668 34.2166L139.441 34.6627L139.202 35.2147L138.956 35.875L138.709 36.6479L138.463 37.5374L138.222 38.5473L137.99 39.6826ZM137.99 39.6826C137.912 40.0971 137.513 40.3699 137.098 40.2922C136.684 40.2146 136.411 39.8151 136.489 39.4006L137.99 39.6826ZM146.111 33.8693L146.196 32.3441L146.293 32.3557L146.812 32.6195L147.088 33.1805L147.055 33.6314L146.926 33.9786L146.749 34.303L146.527 34.6353L146.263 34.9851L145.959 35.354L145.618 35.7409L145.243 36.1432L144.839 36.5572L144.41 36.9787L143.96 37.4043L143.493 37.8292L143.015 38.2499L142.528 38.6614L142.037 39.0598L141.547 39.4404L141.062 39.7993L140.585 40.1322L140.12 40.435L139.669 40.7039L139.234 40.9346L138.815 41.1229L138.405 41.2641L137.991 41.3476L137.552 41.3454L137.083 41.1909L136.685 40.8308L136.48 40.3633L136.434 39.8881L136.489 39.4006L137.99 39.6826L137.962 39.9244L137.968 40.0145L137.939 39.9565L137.835 39.8605L137.765 39.8326L137.822 39.8296L137.994 39.7933L138.247 39.7051L138.56 39.5639L138.918 39.3739L139.311 39.1396L139.73 38.8664L140.17 38.5595L140.624 38.2238L141.087 37.8641L141.553 37.4858L142.017 37.0932L142.475 36.6913L142.921 36.2852L143.35 35.8793L143.757 35.4792L144.137 35.0896L144.486 34.7155L144.797 34.3625L145.065 34.0377L145.283 33.7486L145.446 33.5058L145.544 33.3282L145.574 33.2561L145.572 33.3787L145.744 33.712L146.014 33.8577L146.111 33.8693ZM146.014 33.8577C145.599 33.7813 145.325 33.3827 145.402 32.968C145.479 32.5534 145.878 32.2793 146.293 32.3557L146.014 33.8577ZM147.63 37.1783L148.918 38L148.389 38.7821L147.881 39.4477L147.389 40.0036L146.91 40.4564L146.436 40.8122L145.957 41.0724L145.467 41.2314L144.968 41.2748L144.483 41.1907L144.049 40.9889L143.688 40.7001L143.4 40.3532L143.172 39.9664L142.994 39.5483L142.858 39.1036L142.76 38.637L142.696 38.1517L142.665 37.6525L142.667 37.1439L142.701 36.6312L142.767 36.1194L142.867 35.6134L143.001 35.1184L143.171 34.6402L143.379 34.1832L143.63 33.7533L143.927 33.3583L144.277 33.007L144.683 32.7128L145.146 32.4939L145.656 32.367L146.196 32.3441L146.111 33.8693L145.869 33.8793L145.66 33.9322L145.464 34.0261L145.272 34.1654L145.084 34.3554L144.904 34.5955L144.737 34.8824L144.588 35.2102L144.46 35.5721L144.355 35.9591L144.276 36.3642L144.222 36.7793L144.194 37.1965L144.193 37.608L144.217 38.0053L144.266 38.3802L144.339 38.7241L144.431 39.0279L144.539 39.2825L144.654 39.4802L144.766 39.6157L144.862 39.6948L144.941 39.7331L145.026 39.7483L145.152 39.737L145.343 39.6743L145.602 39.5327L145.92 39.2937L146.287 38.9457L146.698 38.4814L147.147 37.8941L147.63 37.1783ZM147.63 37.1783C147.857 36.8229 148.33 36.7185 148.685 36.9453C149.041 37.1721 149.145 37.6446 148.918 38L147.63 37.1783ZM156.948 34.805L158.177 35.7122L157.332 36.8244L156.545 37.7976L155.814 38.6402L155.134 39.3593L154.5 39.964L153.908 40.4619L153.351 40.8601L152.821 41.1652L152.31 41.3807L151.81 41.5055L151.322 41.5346L150.857 41.464L150.435 41.3015L150.072 41.0672L149.77 40.7861L149.521 40.4767L149.314 40.1515L149.141 39.8185L148.993 39.4845L148.865 39.1561L148.753 38.84L148.653 38.5443L148.563 38.2781L148.482 38.0522L148.412 37.881L148.364 37.7856L148.375 37.7935L148.537 37.8949L148.851 37.9219L149.025 37.8491L149.018 37.8605L148.918 38L147.63 37.1783L147.851 36.8749L148.128 36.6137L148.555 36.4232L149.096 36.4729L149.465 36.7219L149.668 36.9875L149.802 37.2442L149.909 37.5053L150.007 37.7757L150.101 38.0552L150.197 38.3398L150.298 38.6233L150.404 38.8982L150.518 39.1565L150.64 39.3897L150.765 39.5896L150.892 39.7488L151.015 39.8647L151.131 39.9407L151.247 39.9867L151.385 40.0081L151.569 39.997L151.818 39.9347L152.135 39.8005L152.519 39.5789L152.968 39.2581L153.478 38.8291L154.049 38.2844L154.68 37.6165L155.373 36.8189L156.128 35.8838L156.948 34.805ZM156.948 34.805C157.199 34.4656 157.677 34.3937 158.017 34.6441C158.356 34.8944 158.428 35.3729 158.177 35.7122L156.948 34.805ZM158.24 39.4235L157.451 40.7322L157.365 40.672L156.891 40.2488L156.491 39.8046L156.163 39.3431L155.905 38.8681L155.716 38.3853L155.591 37.9007L155.528 37.4206L155.519 36.95L155.558 36.493L155.639 36.0531L155.754 35.6328L155.898 35.2336L156.067 34.8563L156.254 34.5035L156.454 34.1761L156.664 33.8749L156.879 33.6018L157.096 33.357L157.314 33.1418L157.53 32.9563L157.752 32.7994L157.996 32.6704L158.322 32.5829L158.832 32.6713L159.25 33.1364L159.309 33.5704L159.247 33.8875L159.135 34.1815L158.978 34.4962L158.77 34.8506L158.504 35.2539L158.177 35.7122L156.948 34.805L157.245 34.3886L157.474 34.0409L157.638 33.7623L157.741 33.558L157.785 33.4416L157.786 33.4531L157.822 33.6808L158.142 34.0343L158.487 34.1012L158.59 34.0775L158.564 34.0931L158.475 34.1562L158.352 34.2621L158.208 34.4046L158.053 34.5797L157.892 34.7829L157.734 35.0102L157.582 35.2588L157.441 35.5244L157.316 35.804L157.21 36.0946L157.128 36.3929L157.073 36.695L157.046 36.9992L157.052 37.3042L157.092 37.6088L157.17 37.9142L157.29 38.2214L157.458 38.5317L157.682 38.8465L157.968 39.164L158.326 39.4837L158.24 39.4235ZM158.326 39.4837C158.654 39.7485 158.704 40.2298 158.439 40.5578C158.174 40.8858 157.693 40.9369 157.365 40.672L158.326 39.4837ZM169.354 31.6911L168.75 30.2883L169.259 30.1214L169.783 30.0807L170.313 30.2269L170.742 30.5769L170.988 31.0252L171.091 31.4912L171.102 31.9682L171.046 32.465L170.934 32.9879L170.77 33.5374L170.557 34.1121L170.297 34.7074L169.993 35.3183L169.644 35.9386L169.254 36.563L168.822 37.1843L168.352 37.7965L167.842 38.3924L167.296 38.9654L166.714 39.5085L166.096 40.0143L165.444 40.4752L164.758 40.8835L164.039 41.2307L163.289 41.508L162.508 41.7057L161.701 41.814L160.872 41.8241L160.026 41.7267L159.171 41.5159L158.31 41.1858L157.451 40.7322L158.24 39.4235L158.945 39.7958L159.632 40.0592L160.3 40.2238L160.952 40.2985L161.591 40.2905L162.219 40.2058L162.836 40.0492L163.441 39.8254L164.034 39.5389L164.611 39.1948L165.17 38.7994L165.708 38.359L166.221 37.8802L166.708 37.3696L167.164 36.8349L167.589 36.2835L167.978 35.7225L168.33 35.1597L168.643 34.6032L168.913 34.0608L169.14 33.5408L169.321 33.053L169.454 32.6067L169.539 32.2147L169.575 31.8916L169.572 31.6577L169.548 31.537L169.552 31.5359L169.621 31.589L169.669 31.6042L169.584 31.6136L169.354 31.6911ZM169.354 31.6911C168.966 31.858 168.517 31.6793 168.35 31.292C168.183 30.9047 168.362 30.4552 168.75 30.2883L169.354 31.6911ZM173.011 32.4828L171.533 32.0929L172.953 32.633L172.679 33.1035L172.359 33.5297L172.003 33.9106L171.615 34.2467L171.204 34.5399L170.774 34.7915L170.331 35.0042L169.88 35.1796L169.425 35.3194L168.969 35.4255L168.518 35.4987L168.074 35.5406L167.641 35.552L167.223 35.5329L166.822 35.4837L166.44 35.4028L166.078 35.2868L165.739 35.1306L165.426 34.9244L165.15 34.6526L164.935 34.3051L164.821 33.8945L164.83 33.4647L164.95 33.0564L165.157 32.6811L165.437 32.3302L165.786 31.9923L166.209 31.6585L166.712 31.3237L167.299 30.9843L167.976 30.6396L168.75 30.2883L169.354 31.6911L168.637 32.0167L168.025 32.3281L167.515 32.6225L167.103 32.897L166.787 33.1465L166.561 33.3641L166.421 33.5387L166.354 33.6581L166.338 33.7107V33.7075L166.333 33.6863L166.337 33.6902L166.379 33.7296L166.476 33.792L166.627 33.8614L166.829 33.9251L167.072 33.9765L167.35 34.0107L167.656 34.0246L167.982 34.0159L168.323 33.9838L168.674 33.9268L169.027 33.8447L169.379 33.7366L169.724 33.6027L170.058 33.4431L170.374 33.2578L170.671 33.0468L170.943 32.8108L171.189 32.5489L171.405 32.2604L171.59 31.9427L173.011 32.4828ZM171.59 31.9427C171.781 31.5665 172.241 31.4161 172.618 31.6066C172.994 31.797 173.144 32.2568 172.953 32.633L171.59 31.9427ZM179.901 36.9393L180.569 38.3126L179.667 38.7455L178.817 39.1392L178.018 39.4941L177.27 39.8104L176.569 40.0881L175.913 40.3276L175.302 40.5287L174.73 40.6915L174.196 40.8158L173.696 40.9006L173.226 40.944L172.781 40.9431L172.357 40.8916L171.956 40.7825L171.582 40.6076L171.25 40.3661L170.973 40.0659L170.759 39.722L170.605 39.3486L170.503 38.9534L170.444 38.5373L170.421 38.0991L170.429 37.6358L170.466 37.1458L170.527 36.6267L170.612 36.0775L170.72 35.4963L170.847 34.8824L170.993 34.2356L171.157 33.5554L171.338 32.8414L171.533 32.0929L173.011 32.4828L172.818 33.2205L172.641 33.9209L172.481 34.5827L172.34 35.2055L172.219 35.789L172.119 36.3325L172.041 36.8343L171.986 37.293L171.956 37.7073L171.949 38.0747L171.965 38.3926L172.003 38.6586L172.057 38.8706L172.122 39.03L172.192 39.1437L172.267 39.2252L172.356 39.29L172.477 39.3459L172.645 39.3912L172.87 39.418L173.153 39.4184L173.495 39.3865L173.893 39.3189L174.346 39.2134L174.853 39.069L175.412 38.885L176.025 38.6609L176.691 38.3969L177.411 38.0931L178.185 37.7488L179.015 37.3641L179.901 36.9393ZM179.901 36.9393C180.281 36.7549 180.738 36.9126 180.923 37.2917C181.107 37.6709 180.949 38.1282 180.569 38.3126L179.901 36.9393Z" fill="black"/>
</svg>
